<?xml version="1.0" encoding="UTF-8"?><svg id="Layer_1" xmlns="http://www.w3.org/2000/svg" xmlns:xlink="http://www.w3.org/1999/xlink" viewBox="0 0 481.5 850.8"><defs><style>.cls-1,.cls-2{fill:none;}.cls-3{fill:#67e8f9;}.cls-2{stroke-width:5px;}.cls-2,.cls-4{stroke:#cafeff;stroke-miterlimit:10;}.cls-4{fill:url(#New_Pattern_4);stroke-width:26.34px;}</style><pattern id="New_Pattern_4" x="0" y="0" width="118.25" height="111.99" patternTransform="translate(10180.61 17207.49) scale(2.63)" patternUnits="userSpaceOnUse" viewBox="0 0 118.25 111.99"><g><rect class="cls-1" width="118.25" height="111.99"/><g><line class="cls-2" x1="62.65" y1="83.99" x2="62.65" y2="139.99"/><line class="cls-2" x1="71.69" y1="83.99" x2="71.69" y2="139.99"/><line class="cls-2" x1="80.73" y1="83.99" x2="80.73" y2="139.99"/><line class="cls-2" x1="89.76" y1="83.99" x2="89.76" y2="139.99"/><line class="cls-2" x1="98.8" y1="83.99" x2="98.8" y2="139.99"/><line class="cls-2" x1="107.84" y1="83.99" x2="107.84" y2="139.99"/><line class="cls-2" x1="116.88" y1="83.99" x2="116.88" y2="139.99"/><line class="cls-2" x1="44.57" y1="83.99" x2="44.57" y2="139.99"/><line class="cls-2" x1="53.61" y1="83.99" x2="53.61" y2="139.99"/><line class="cls-2" x1="35.53" y1="83.99" x2="35.53" y2="139.99"/><line class="cls-2" x1="26.49" y1="83.99" x2="26.49" y2="139.99"/><line class="cls-2" x1="8.41" y1="83.99" x2="8.41" y2="139.99"/><line class="cls-2" x1="17.45" y1="83.09" x2="17.45" y2="139.08"/></g><line class="cls-2" x1="-1.37" y1="83.99" x2="-1.37" y2="139.99"/><g><line class="cls-2" x1="62.65" y1="28" x2="62.65" y2="83.99"/><line class="cls-2" x1="71.69" y1="28" x2="71.69" y2="83.99"/><line class="cls-2" x1="80.73" y1="28" x2="80.73" y2="83.99"/><line class="cls-2" x1="89.76" y1="28" x2="89.76" y2="83.99"/><line class="cls-2" x1="98.8" y1="28" x2="98.8" y2="83.99"/><line class="cls-2" x1="107.84" y1="28" x2="107.84" y2="83.99"/><line class="cls-2" x1="116.88" y1="28" x2="116.88" y2="83.99"/><line class="cls-2" x1="44.57" y1="28" x2="44.57" y2="83.99"/><line class="cls-2" x1="53.61" y1="28" x2="53.61" y2="83.99"/><line class="cls-2" x1="35.53" y1="28" x2="35.53" y2="83.99"/><line class="cls-2" x1="26.49" y1="28" x2="26.49" y2="83.99"/><line class="cls-2" x1="8.41" y1="28" x2="8.41" y2="83.99"/><line class="cls-2" x1="17.45" y1="27.09" x2="17.45" y2="83.09"/></g><line class="cls-2" x1="-1.37" y1="28" x2="-1.37" y2="83.99"/><g><line class="cls-2" x1="62.65" y1="-28" x2="62.65" y2="28"/><line class="cls-2" x1="71.69" y1="-28" x2="71.69" y2="28"/><line class="cls-2" x1="80.73" y1="-28" x2="80.73" y2="28"/><line class="cls-2" x1="89.76" y1="-28" x2="89.76" y2="28"/><line class="cls-2" x1="98.8" y1="-28" x2="98.8" y2="28"/><line class="cls-2" x1="107.84" y1="-28" x2="107.84" y2="28"/><line class="cls-2" x1="116.88" y1="-28" x2="116.88" y2="28"/><line class="cls-2" x1="44.57" y1="-28" x2="44.57" y2="28"/><line class="cls-2" x1="53.61" y1="-28" x2="53.61" y2="28"/><line class="cls-2" x1="35.53" y1="-28" x2="35.53" y2="28"/><line class="cls-2" x1="26.49" y1="-28" x2="26.49" y2="28"/><line class="cls-2" x1="8.41" y1="-28" x2="8.41" y2="28"/><line class="cls-2" x1="17.45" y1="-28.91" x2="17.45" y2="27.09"/></g><line class="cls-2" x1="-1.37" y1="-28" x2="-1.37" y2="28"/></g></pattern></defs><path class="cls-3" d="M240.75,369.3C107.79,369.3,0,477.09,0,610.05s107.79,240.75,240.75,240.75,240.75-107.79,240.75-240.75-107.79-240.75-240.75-240.75Zm15.98,266.67l13.14,22.76c1.26,2.18-.31,4.91-2.84,4.91h-52.56c-2.52,0-4.1-2.73-2.84-4.91l13.14-22.76,5.47-9.48c-14.65-4.49-25.3-18.12-25.3-34.23,0-21.13,18.31-37.99,39.93-35.57,16.22,1.82,29.41,14.84,31.39,31.04,2.21,18.05-9.02,33.86-25.02,38.76l5.47,9.48Z"/><path class="cls-4" d="M91.32,692.64h-10.05c-14.79,0-26.79-11.99-26.79-26.79V39.96c0-14.79,11.99-26.79,26.79-26.79H233.62c45.2,0,84.26,7.82,117.19,23.44,32.93,15.63,58.39,37.95,76.39,66.97,17.99,29.02,26.99,63.9,26.99,104.64s-.22,50.58,0,81.09c.29,39.96-58.22,38.04-60.94,3.17-2.04-26.12-3.83-48.35-4.35-82.59-.47-30.69-6.98-56.85-20.93-78.48-13.96-21.62-33.69-38.09-59.23-49.39-25.53-11.3-55.6-16.95-90.19-16.95h-73.66c-14.79,0-26.79,11.99-26.79,26.79V665.85c0,14.79-11.99,26.79-26.79,26.79Z"/></svg>